<?xml version="1.0" encoding="UTF-8"?>
<svg width="19px" height="20px" viewBox="0 0 19 20" version="1.1" xmlns="http://www.w3.org/2000/svg" xmlns:xlink="http://www.w3.org/1999/xlink">
    <!-- Generator: sketchtool 43.1 (39012) - http://www.bohemiancoding.com/sketch -->
    <title>F6785218-C829-4283-A060-B53331CCB4C8</title>
    <desc>Created with sketchtool.</desc>
    <defs></defs>
    <g id="ЛК-менеджера" stroke="none" stroke-width="1" fill="none" fill-rule="evenodd" opacity="0.5">
        <g id="Список-заявок" transform="translate(-349.000000, -154.000000)" fill="#232F34">
            <g id="Search" transform="translate(330.000000, 141.000000)">
                <path d="M30,27.8096053 L30,34.4903505 C30,34.7718221 29.7680664,35 29.5,35 C29.2238576,35 29,34.7723472 29,34.4903505 L29,27.7602362 C27.3803833,27.5719074 25.810405,26.856497 24.5679131,25.6140051 C21.6389809,22.6850729 21.6389809,17.9363356 24.5679131,15.0074034 C27.4968452,12.0784712 32.2455826,12.0784712 35.1745148,15.0074034 C38.103447,17.9363356 38.103447,22.6850729 35.1745148,25.6140051 C33.7428035,27.0457164 31.8762645,27.7775832 30,27.8096053 Z M34.467408,24.9068983 C37.0058159,22.3684904 37.0058159,18.2529181 34.467408,15.7145102 C31.9290001,13.1761023 27.8134277,13.1761023 25.2750198,15.7145102 C22.7366119,18.2529181 22.7366119,22.3684904 25.2750198,24.9068983 C27.8134277,27.4453062 31.9290001,27.4453062 34.467408,24.9068983 Z" id="Icon_Search" transform="translate(29.871214, 23.905352) rotate(-45.000000) translate(-29.871214, -23.905352) "></path>
            </g>
        </g>
    </g>
</svg>