<?xml version="1.0" encoding="UTF-8"?>
<svg width="11px" height="20px" viewBox="0 0 11 20" version="1.1" xmlns="http://www.w3.org/2000/svg" xmlns:xlink="http://www.w3.org/1999/xlink">
    <!-- Generator: sketchtool 46.2 (44496) - http://www.bohemiancoding.com/sketch -->
    <title>110AC0EE-22FA-43B8-A45B-8964FC8716CD</title>
    <desc>Created with sketchtool.</desc>
    <defs></defs>
    <g id="Ипотека-(запуск)" stroke="none" stroke-width="1" fill="none" fill-rule="evenodd" opacity="0.699999988">
        <g id="Дополнительная-информация-и-работа" transform="translate(-724.000000, -210.000000)" fill="#333333">
            <g id="Дополнительная-информация" transform="translate(330.000000, 80.000000)">
                <g id="Семейное-положение" transform="translate(70.000000, 107.000000)">
                    <path d="M328.958577,42.7715845 C328.918977,42.7268327 324.201384,37.3341162 324.201384,37.3341162 C323.932872,37.0288539 323.932872,36.533709 324.201384,36.2285718 C324.469675,35.9241845 324.905057,35.9234345 325.173568,36.2285718 L329.5,41.1451442 L333.826432,36.2285718 C334.095053,35.9234345 334.530105,35.9241845 334.798616,36.2285718 C335.067128,36.533834 335.067128,37.0289789 334.798616,37.3341162 L330.014033,42.7710845 C329.745411,43.0762218 329.226429,43.0762218 328.958577,42.7715845 Z M328.958577,23.2284155 C329.226429,22.9237782 329.745411,22.9237782 330.014033,23.2289155 L334.798616,28.6658838 C335.067128,28.9710211 335.067128,29.466166 334.798616,29.7714282 C334.530105,30.0758155 334.095053,30.0765655 333.826432,29.7714282 L329.5,24.8548558 L325.173568,29.7714282 C324.905057,30.0765655 324.469675,30.0758155 324.201384,29.7714282 C323.932872,29.466291 323.932872,28.9711461 324.201384,28.6658838 C324.201384,28.6658838 328.918977,23.2731673 328.958577,23.2284155 Z" id="Icon_Arrow_Black"></path>
                </g>
            </g>
        </g>
    </g>
</svg>